<svg id="icons" xmlns="http://www.w3.org/2000/svg" viewBox="0 0 24 24"><path d="M11.5 1A10.5 10.5 0 1 0 22 11.5 10.499 10.499 0 0 0 11.5 1zM1.925 12h3.09a15.806 15.806 0 0 0 .621 4h-2.61a9.53 9.53 0 0 1-1.1-4zM12 6V2.044c1.639.256 3.07 1.76 3.976 3.956zm4.342 1a15.011 15.011 0 0 1 .643 4H12V7zM11 2.044V6H7.024C7.93 3.805 9.36 2.3 11 2.044zM11 7v4H6.015a15.011 15.011 0 0 1 .643-4zm-5.984 4h-3.09a9.53 9.53 0 0 1 1.1-4h2.61a15.806 15.806 0 0 0-.62 4zm.999 1H11v4H6.658a15.011 15.011 0 0 1-.643-4zM11 17v3.956C9.361 20.7 7.93 19.196 7.024 17zm1 3.956V17h3.976c-.907 2.195-2.337 3.7-3.976 3.956zM12 16v-4h4.985a15.011 15.011 0 0 1-.643 4zm5.984-4h3.09a9.53 9.53 0 0 1-1.1 4h-2.61a15.806 15.806 0 0 0 .62-4zm0-1a15.806 15.806 0 0 0-.62-4h2.61a9.53 9.53 0 0 1 1.1 4zm1.372-5h-2.33a9.689 9.689 0 0 0-2.182-3.487A9.637 9.637 0 0 1 19.356 6zm-11.2-3.487A9.689 9.689 0 0 0 5.974 6h-2.33a9.636 9.636 0 0 1 4.512-3.487zM3.644 17h2.33a9.689 9.689 0 0 0 2.182 3.487A9.636 9.636 0 0 1 3.644 17zm11.2 3.487A9.689 9.689 0 0 0 17.026 17h2.33a9.637 9.637 0 0 1-4.512 3.487z"/></svg>