<?xml version="1.0" encoding="utf-8"?><svg version="1.1" id="Layer_1" xmlns="http://www.w3.org/2000/svg" xmlns:xlink="http://www.w3.org/1999/xlink" x="0px" y="0px" viewBox="0 0 12.8 19.9" style="enable-background:new 0 0 12.8 19.9;" xml:space="preserve"><title>logo-fusion</title><g><linearGradient id="SVGID_1_" gradientUnits="userSpaceOnUse" x1="6.9363" y1="5.5957" x2="14.6362" y2="26.078" gradientTransform="matrix(1 0 0 -1 -7.64 25.758)"><stop  offset="0" style="stop-color:#A75726"/><stop  offset="1.000000e-03" style="stop-color:#A75726"/><stop  offset="0.281" style="stop-color:#C5702B"/><stop  offset="0.521" style="stop-color:#D7802F"/><stop  offset="0.692" style="stop-color:#DE8530"/><stop  offset="0.764" style="stop-color:#DA832F"/><stop  offset="0.839" style="stop-color:#CE7C2E"/><stop  offset="0.914" style="stop-color:#B9702B"/><stop  offset="0.989" style="stop-color:#9D5F26"/><stop  offset="0.995" style="stop-color:#9A5E26"/></linearGradient><path fill="url(#SVGID_1_)" d="M0,1.3c0,2.2,0.1,13.9,0.5,18c0.5,0.4,5.3,0.5,5.3,0.5C-1.8,8.2,1.9,2.6,3.9,0C2.6,0.3,1.3,0.8,0,1.3z"/><linearGradient id="SVGID_2_" gradientUnits="userSpaceOnUse" x1="7.5567" y1="13.1755" x2="23.6797" y2="22.1995" gradientTransform="matrix(1 0 0 -1 -7.64 25.758)"><stop  offset="0" style="stop-color:#A75726"/><stop  offset="1.000000e-03" style="stop-color:#A75726"/><stop  offset="0.281" style="stop-color:#C5702B"/><stop  offset="0.521" style="stop-color:#D7802F"/><stop  offset="0.692" style="stop-color:#DE8530"/><stop  offset="0.764" style="stop-color:#DA832F"/><stop  offset="0.839" style="stop-color:#CE7C2E"/><stop  offset="0.914" style="stop-color:#B9702B"/><stop  offset="0.989" style="stop-color:#9D5F26"/><stop  offset="0.995" style="stop-color:#9A5E26"/></linearGradient><path fill="url(#SVGID_2_)" d="M5.7,19.8C4.6,17.2,0,8.7,3.4,5.1c2.9-3.1,9.3-1,9.3-1s-0.4-1.9-0.6-2.7C12,1.2,11.8,1,11.6,0.9C9,0.4,6.4,0.1,3.7,0C3.8,0-3.2,6,5.7,19.8z"/><g><radialGradient id="SVGID_3_" cx="41.8295" cy="9.2369" r="9.3109" gradientTransform="matrix(0.9882 0 0 -0.7543 -32.4619 19.8939)" gradientUnits="userSpaceOnUse"><stop  offset="0.338" style="stop-color:#AB8052"/><stop  offset="0.374" style="stop-color:#B18453"/><stop  offset="0.651" style="stop-color:#DAA259"/><stop  offset="0.869" style="stop-color:#F4B55E"/><stop  offset="1" style="stop-color:#FDBC5F"/></radialGradient><path fill="url(#SVGID_3_)" d="M2.6,6.2c-2.1,4.2,3.1,13.5,3.1,13.6c-0.1-1.5-0.1-3,0-4.5c0.1-1.4,0.3-2.6,2.1-3.1c1.5-0.3,3-0.5,4.5-0.6c0.1,0-0.7-0.5-5-0.4c-2.6,0-2.5-2.6-0.5-2.7c1.5-0.1,4.3,0.1,4.3,0.1S8.8,8.2,7.2,7.8c-1,0-1.7-0.8-1.7-1.8c0,0,0,0,0,0v0L2.7,6L2.6,6.2z"/><radialGradient id="SVGID_4_" cx="38.9588" cy="214.0149" r="10.357" gradientTransform="matrix(0.9791 0.1338 5.759345e-02 -0.4274 -40.7725 89.3083)" gradientUnits="userSpaceOnUse"><stop  offset="0.338" style="stop-color:#AB8052"/><stop  offset="0.374" style="stop-color:#B18453"/><stop  offset="0.651" style="stop-color:#DAA259"/><stop  offset="0.869" style="stop-color:#F4B55E"/><stop  offset="1" style="stop-color:#FDBC5F"/></radialGradient><path fill="url(#SVGID_4_)" d="M9.7,4.2C12.8,4.5,12.8,4,12.8,4S6.4,1.9,3.5,5C3.2,5.3,2.9,5.7,2.7,6.2l0.1,0.3h2.6l0.1-0.3C5.7,5.4,6.6,4.1,9.7,4.2z"/></g><radialGradient id="SVGID_5_" cx="43.9598" cy="14.8501" r="7.5068" gradientTransform="matrix(0.978 0 0 -0.772 -31.996 19.94)" gradientUnits="userSpaceOnUse"><stop  offset="0" style="stop-color:#DE8530"/><stop  offset="0.226" style="stop-color:#DA832F"/><stop  offset="0.451" style="stop-color:#CE7C2D"/><stop  offset="0.675" style="stop-color:#BA702A"/><stop  offset="0.899" style="stop-color:#9E6026"/><stop  offset="1" style="stop-color:#8F5723"/></radialGradient><path fill="url(#SVGID_5_)" d="M11.1,8.6c-1.5-0.1-3-0.2-4.6-0.1c-2,0.1-2.1,2.7,0.5,2.7c4.3,0,5.1,0.4,5.2,0.4l0,0L11.1,8.6z"/></g></svg>