<svg id="icons" xmlns="http://www.w3.org/2000/svg" viewBox="0 0 32 32"><path d="M2 17.5a13.45 13.45 0 0 0 4.329 9.878l-.712.712A14.49 14.49 0 1 1 25.69 7.189l-.712.712A13.49 13.49 0 0 0 2 17.5zm23.416-5.795l-.726.726a10.439 10.439 0 0 1-1.434 12.118l-1.392-1.392-.707.707 2.1 2.1a11.426 11.426 0 0 0 2.16-14.26zm2.185-2.185l-.731.731a13.42 13.42 0 0 1-2.199 17.127l.712.712A14.462 14.462 0 0 0 27.6 9.52zM9.136 11.843l.707-.707L8.45 9.742A10.443 10.443 0 0 1 15 7.025V9h1V7.025a10.46 10.46 0 0 1 6.858 2.996l.707-.707a11.487 11.487 0 1 0-15.823 16.65l2.101-2.1-.707-.707-1.392 1.392A10.431 10.431 0 0 1 5.027 18H7v-1H5.025a10.443 10.443 0 0 1 2.717-6.55zm19.16-4.431l-.707-.707-10.712 10.71a2.505 2.505 0 1 0 .707.708z"/></svg>