<svg id="icons" xmlns="http://www.w3.org/2000/svg" viewBox="0 0 24 24"><path d="M5.95 6.653A7.338 7.338 0 0 0 4.147 11H6v1H4.149a7.324 7.324 0 0 0 1.81 4.346l1.29-1.29.707.708C6.22 17.5 6.633 17.079 5.963 17.777a8.373 8.373 0 1 1 11.398-12.26l-.71.71A7.353 7.353 0 0 0 12 4.147V6h-1V4.146a7.338 7.338 0 0 0-4.342 1.8L7.973 7.26l-.707.707zM19.11 8.01l-.76.76a7.303 7.303 0 0 1-1.301 7.565L15.75 15.04l-.707.707 1.993 2.031a8.339 8.339 0 0 0 2.073-9.766zM2 11.5a9.492 9.492 0 0 1 16.15-6.772l.711-.71a10.493 10.493 0 1 0-14.364 15.29l.694-.725A9.469 9.469 0 0 1 2 11.5zm17.947-4.326a9.442 9.442 0 0 1-2.138 11.41l.694.724a10.473 10.473 0 0 0 2.19-12.88zm2.285-3.699l-.707-.707-8.648 8.648a2.505 2.505 0 1 0 .707.707z"/></svg>