<svg id="icons" xmlns="http://www.w3.org/2000/svg" viewBox="0 0 16 16"><path d="M9.083 12l-3.264-.044a1.478 1.478 0 0 1-.73-1.104 4.948 4.948 0 0 1-.1-.817 3.795 3.795 0 0 0-.134-.903 3.15 3.15 0 0 0-.426-.658A6.33 6.33 0 0 1 2.95 4.897a4.557 4.557 0 0 1 1.645-3.794 4.497 4.497 0 0 1 5.9.076 4.57 4.57 0 0 1 1.555 3.72 6.33 6.33 0 0 1-1.479 3.575 3.174 3.174 0 0 0-.426.657 3.81 3.81 0 0 0-.134.904 4.948 4.948 0 0 1-.1.817 1.478 1.478 0 0 1-.73 1.104zM6.21 11h2.585a1.138 1.138 0 0 0 .14-.365 3.897 3.897 0 0 0 .078-.66 4.716 4.716 0 0 1 .17-1.119 3.32 3.32 0 0 1 .586-.98 5.377 5.377 0 0 0 1.283-3.037 3.576 3.576 0 0 0-1.219-2.91 3.504 3.504 0 0 0-4.596-.06 3.57 3.57 0 0 0-1.289 2.969 5.377 5.377 0 0 0 1.283 3.038 3.312 3.312 0 0 1 .585.981 4.702 4.702 0 0 1 .171 1.118 3.897 3.897 0 0 0 .078.66A1.018 1.018 0 0 0 6.21 11z"/><path d="M9.723 12.5l.16-.536A.75.75 0 0 0 9.164 11H8V8H7v3H5.836a.75.75 0 0 0-.718.966l.16.534-.365 1.215 1.487.967a2.02 2.02 0 0 0 2.2-.001l1.487-.966zm-1.666 1.342a1.036 1.036 0 0 1-1.113 0l-.857-.557.235-.785-.15-.5h2.656l-.15.5.235.785zM6 6h3v1H6z"/></svg>