<svg id="icons" xmlns="http://www.w3.org/2000/svg" viewBox="0 0 32 32"><path d="M30.85 15.963A14.855 14.855 0 0 1 20.703 30.05c-.753.145-1.02-.317-1.02-.714 0-.487.017-2.088.017-4.074a3.544 3.544 0 0 0-1.008-2.75c3.308-.367 6.78-1.623 6.78-7.327a5.73 5.73 0 0 0-1.526-3.985 5.334 5.334 0 0 0-.148-3.93s-1.244-.4-4.08 1.522a14.078 14.078 0 0 0-7.435 0C9.446 6.87 8.2 7.27 8.2 7.27a5.341 5.341 0 0 0-.146 3.93 5.74 5.74 0 0 0-1.529 3.984c0 5.691 3.467 6.965 6.765 7.34a3.173 3.173 0 0 0-.943 1.985 3.162 3.162 0 0 1-4.322-1.234 3.12 3.12 0 0 0-2.275-1.53s-1.45-.019-.102.903a3.933 3.933 0 0 1 1.65 2.172s.87 2.888 5.002 1.99c.007 1.24.02 2.174.02 2.526 0 .394-.271.852-1.014.716a14.851 14.851 0 1 1 19.544-14.09z"/></svg>