<svg id="icons" xmlns="http://www.w3.org/2000/svg" viewBox="0 0 24 24"><path d="M22.825 11.968a10.828 10.828 0 0 1-7.397 10.27c-.549.106-.744-.231-.744-.52 0-.356.013-1.523.013-2.97a2.584 2.584 0 0 0-.735-2.005c2.412-.268 4.943-1.183 4.943-5.342a4.177 4.177 0 0 0-1.113-2.904 3.889 3.889 0 0 0-.108-2.865s-.907-.291-2.973 1.11a10.26 10.26 0 0 0-5.42 0c-2.068-1.401-2.977-1.11-2.977-1.11a3.893 3.893 0 0 0-.106 2.865A4.184 4.184 0 0 0 5.093 11.4c0 4.149 2.527 5.077 4.931 5.35a2.313 2.313 0 0 0-.687 1.448 2.305 2.305 0 0 1-3.15-.9 2.274 2.274 0 0 0-1.659-1.115s-1.057-.014-.074.658a2.867 2.867 0 0 1 1.202 1.583s.635 2.105 3.647 1.451c.005.904.014 1.584.014 1.841 0 .287-.197.621-.739.522a10.826 10.826 0 1 1 14.247-10.271z"/></svg>