<svg id="icons" xmlns="http://www.w3.org/2000/svg" viewBox="0 0 16 16"><path d="M15.8 7.993a7.803 7.803 0 0 1-5.33 7.4c-.395.076-.536-.166-.536-.375 0-.256.01-1.097.01-2.14a1.862 1.862 0 0 0-.53-1.444c1.738-.193 3.561-.853 3.561-3.85a3.01 3.01 0 0 0-.801-2.092 2.801 2.801 0 0 0-.078-2.064s-.654-.21-2.143.8a7.392 7.392 0 0 0-3.905 0c-1.49-1.01-2.145-.8-2.145-.8a2.805 2.805 0 0 0-.077 2.064 3.015 3.015 0 0 0-.803 2.093c0 2.989 1.821 3.658 3.553 3.855a1.666 1.666 0 0 0-.495 1.043 1.66 1.66 0 0 1-2.27-.649 1.639 1.639 0 0 0-1.195-.803s-.761-.01-.053.474a2.065 2.065 0 0 1 .866 1.14s.458 1.518 2.627 1.046c.004.651.01 1.142.01 1.327 0 .207-.141.447-.532.376a7.8 7.8 0 1 1 10.266-7.4z"/></svg>