<svg id="icons" xmlns="http://www.w3.org/2000/svg" viewBox="0 0 16 16"><path d="M15.952 4.702a5.873 5.873 0 0 0-.372-1.942 3.92 3.92 0 0 0-.923-1.417A3.92 3.92 0 0 0 13.24.42a5.873 5.873 0 0 0-1.942-.372C10.445.01 10.173 0 8 0S5.555.01 4.702.048A5.872 5.872 0 0 0 2.76.42a3.92 3.92 0 0 0-1.417.923A3.923 3.923 0 0 0 .42 2.76a5.87 5.87 0 0 0-.372 1.942C.01 5.555 0 5.827 0 8s.01 2.445.048 3.298A5.87 5.87 0 0 0 .42 13.24a3.922 3.922 0 0 0 .923 1.417 3.922 3.922 0 0 0 1.417.923 5.87 5.87 0 0 0 1.942.372C5.555 15.99 5.827 16 8 16s2.445-.01 3.298-.048a5.871 5.871 0 0 0 1.942-.372 4.091 4.091 0 0 0 2.34-2.34 5.872 5.872 0 0 0 .372-1.942C15.99 10.445 16 10.173 16 8s-.01-2.445-.048-3.298zM14.5 11.375a3.125 3.125 0 0 1-3.125 3.125h-6.75A3.125 3.125 0 0 1 1.5 11.375v-6.75A3.125 3.125 0 0 1 4.625 1.5h6.75A3.125 3.125 0 0 1 14.5 4.625zM8 4.062A3.938 3.938 0 1 0 11.938 8 3.938 3.938 0 0 0 8 4.062zM8 10.5A2.5 2.5 0 1 1 10.5 8 2.503 2.503 0 0 1 8 10.5zM12.3 5h-.6a.7.7 0 0 1-.7-.7v-.6a.7.7 0 0 1 .7-.7h.6a.7.7 0 0 1 .7.7v.6a.7.7 0 0 1-.7.7z"/></svg>