<svg id="icons" xmlns="http://www.w3.org/2000/svg" viewBox="0 0 24 24"><path d="M21.94 7.877a7.34 7.34 0 0 0-.465-2.427 5.113 5.113 0 0 0-2.925-2.925 7.338 7.338 0 0 0-2.427-.465C15.056 2.011 14.716 2 12 2s-3.056.011-4.123.06a7.338 7.338 0 0 0-2.427.465A5.113 5.113 0 0 0 2.525 5.45a7.34 7.34 0 0 0-.465 2.427C2.011 8.944 2 9.284 2 12s.011 3.056.06 4.123a7.341 7.341 0 0 0 .465 2.427 5.113 5.113 0 0 0 2.925 2.925 7.34 7.34 0 0 0 2.427.465c1.067.048 1.407.06 4.123.06s3.056-.011 4.123-.06a7.34 7.34 0 0 0 2.427-.465 5.113 5.113 0 0 0 2.925-2.925 7.341 7.341 0 0 0 .465-2.427c.048-1.067.06-1.407.06-4.123s-.012-3.056-.06-4.123zm-1.948 8.18a5.318 5.318 0 0 1-.334 1.806 3.133 3.133 0 0 1-1.796 1.796 5.324 5.324 0 0 1-1.806.333c-1.014.046-1.286.058-4.056.058s-3.042-.012-4.058-.058a5.319 5.319 0 0 1-1.805-.334 3.133 3.133 0 0 1-1.796-1.796 5.324 5.324 0 0 1-.333-1.805C3.962 15.042 3.95 14.77 3.95 12s.012-3.042.058-4.058a5.318 5.318 0 0 1 .334-1.805 3.133 3.133 0 0 1 1.796-1.796 5.324 5.324 0 0 1 1.806-.333C8.958 3.962 9.23 3.95 12 3.95s3.042.012 4.058.058a5.318 5.318 0 0 1 1.805.334 3.133 3.133 0 0 1 1.796 1.796 5.324 5.324 0 0 1 .333 1.806c.046 1.014.058 1.286.058 4.056s-.012 3.042-.058 4.058zM12 7a5 5 0 1 0 5 5 5 5 0 0 0-5-5zm0 8.246A3.246 3.246 0 1 1 15.246 12 3.246 3.246 0 0 1 12 15.246zM18 7.3a.7.7 0 0 1-.7.7h-.6a.7.7 0 0 1-.7-.7v-.6a.7.7 0 0 1 .7-.7h.6a.7.7 0 0 1 .7.7z"/></svg>