<svg id="icons" xmlns="http://www.w3.org/2000/svg" viewBox="0 0 32 32"><path d="M30.91 9.816a11.009 11.009 0 0 0-.697-3.642 7.352 7.352 0 0 0-1.73-2.656 7.352 7.352 0 0 0-2.657-1.73 11.008 11.008 0 0 0-3.642-.698C20.584 1.017 20.074 1 16 1s-4.585.017-6.184.09a11.008 11.008 0 0 0-3.642.698 7.352 7.352 0 0 0-2.656 1.73 7.352 7.352 0 0 0-1.73 2.656 11.009 11.009 0 0 0-.698 3.641C1.017 11.415 1 11.927 1 16s.017 4.585.09 6.184a11.01 11.01 0 0 0 .698 3.642 7.352 7.352 0 0 0 1.73 2.656 7.352 7.352 0 0 0 2.656 1.73 11.009 11.009 0 0 0 3.642.698c1.6.073 2.11.09 6.184.09s4.585-.017 6.184-.09a11.009 11.009 0 0 0 3.642-.697 7.67 7.67 0 0 0 4.387-4.387 11.01 11.01 0 0 0 .697-3.642c.073-1.6.09-2.11.09-6.184s-.017-4.585-.09-6.184zm-2.898 12.282a7.973 7.973 0 0 1-.5 2.713 4.704 4.704 0 0 1-2.7 2.7 7.963 7.963 0 0 1-2.714.5c-1.586.074-2.062.089-6.098.089s-4.512-.015-6.098-.088a7.973 7.973 0 0 1-2.713-.5 4.412 4.412 0 0 1-1.637-1.064 4.406 4.406 0 0 1-1.063-1.636 7.963 7.963 0 0 1-.5-2.714C3.914 20.512 3.9 20.036 3.9 16s.015-4.512.088-6.098a7.973 7.973 0 0 1 .5-2.713 4.411 4.411 0 0 1 1.064-1.637A4.406 4.406 0 0 1 7.188 4.49a7.963 7.963 0 0 1 2.714-.5c1.586-.076 2.062-.09 6.098-.09s4.512.015 6.098.088a7.973 7.973 0 0 1 2.713.5 4.704 4.704 0 0 1 2.7 2.7 7.963 7.963 0 0 1 .5 2.714c.074 1.586.089 2.062.089 6.098s-.015 4.512-.088 6.098zM16 8.175A7.825 7.825 0 1 0 23.825 16 7.825 7.825 0 0 0 16 8.175zm0 12.65A4.825 4.825 0 1 1 20.825 16 4.83 4.83 0 0 1 16 20.825zM26.007 7.993a2 2 0 1 1-2-2 2 2 0 0 1 2 2z"/></svg>