<svg id="icons" xmlns="http://www.w3.org/2000/svg" viewBox="0 0 32 32"><path d="M13.286 26.953c.192-.739.984-3.756.984-3.756a4.228 4.228 0 0 0 3.621 1.815c4.766 0 8.199-4.383 8.199-9.828 0-5.22-4.26-9.125-9.74-9.125-6.819 0-10.44 4.577-10.44 9.561 0 2.317 1.234 5.202 3.207 6.121.3.14.46.078.528-.211.053-.22.32-1.293.44-1.792a.472.472 0 0 0-.11-.453 6.147 6.147 0 0 1-1.176-3.606 6.84 6.84 0 0 1 7.134-6.857 6.237 6.237 0 0 1 6.6 6.428c0 4.274-2.159 7.236-4.967 7.236a2.294 2.294 0 0 1-2.34-2.856c.446-1.878 1.309-3.905 1.309-5.26a1.985 1.985 0 0 0-2-2.226c-1.585 0-2.858 1.64-2.858 3.837a5.7 5.7 0 0 0 .473 2.346s-1.566 6.62-1.853 7.853a15.112 15.112 0 0 0-.056 4.521A15.775 15.775 0 1 1 16 31.8a15.64 15.64 0 0 1-4.671-.716 17.614 17.614 0 0 0 1.957-4.13zm-3.045 3.748l.011.005-.011-.004z"/></svg>