<svg id="icons" xmlns="http://www.w3.org/2000/svg" viewBox="0 0 16 16"><path d="M15.854 8a7.835 7.835 0 0 1-9.977 7.556 8.808 8.808 0 0 0 .967-2.06l.385-1.472a2.51 2.51 0 0 0 1.711.656c2.438 0 4.276-2.187 4.276-5.086a4.789 4.789 0 0 0-5.042-4.736c-3.703 0-5.39 2.568-5.39 4.953a3.73 3.73 0 0 0 1.711 3.225.505.505 0 0 0 .211.054.333.333 0 0 0 .33-.294l.218-.892a.433.433 0 0 0-.095-.398A2.852 2.852 0 0 1 4.62 7.84a3.208 3.208 0 0 1 3.347-3.208 2.908 2.908 0 0 1 3.08 2.995c0 1.969-.953 3.397-2.269 3.397a1.013 1.013 0 0 1-.805-.368.929.929 0 0 1-.163-.805c.079-.333.185-.676.288-1.009a6.287 6.287 0 0 0 .368-1.652 1.187 1.187 0 0 0-1.193-1.307c-.91 0-1.623.926-1.623 2.108a3.128 3.128 0 0 0 .226 1.186c-.11.467-.775 3.277-.905 3.839a7.42 7.42 0 0 0-.042 2.215A7.855 7.855 0 1 1 15.854 8z"/></svg>