<svg id="icons" xmlns="http://www.w3.org/2000/svg" viewBox="0 0 24 24"><path d="M12 1.2A10.8 10.8 0 1 0 22.8 12 10.8 10.8 0 0 0 12 1.2zm1.293 16.96a2.89 2.89 0 0 1-2.476-1.24l-.673 2.567a12.068 12.068 0 0 1-1.342 2.831 10.638 10.638 0 0 1-.739-.269 10.336 10.336 0 0 1 .039-3.09c.196-.843 1.266-5.368 1.266-5.368a3.896 3.896 0 0 1-.323-1.604c0-1.501.87-2.623 1.954-2.623a1.357 1.357 0 0 1 1.367 1.522 21.728 21.728 0 0 1-.895 3.595 1.568 1.568 0 0 0 1.6 1.952c1.92 0 3.395-2.024 3.395-4.946a4.263 4.263 0 0 0-4.512-4.393 4.675 4.675 0 0 0-4.876 4.687 4.202 4.202 0 0 0 .803 2.464.322.322 0 0 1 .075.31c-.082.341-.264 1.075-.3 1.225-.047.198-.156.24-.36.144-1.35-.628-2.193-2.6-2.193-4.184 0-3.406 2.475-6.535 7.136-6.535a6.338 6.338 0 0 1 6.658 6.237c0 3.722-2.347 6.718-5.604 6.718z"/></svg>