<svg id="icons" xmlns="http://www.w3.org/2000/svg" viewBox="0 0 24 24"><path d="M18 2H6a4.012 4.012 0 0 0-4 4v12a4.012 4.012 0 0 0 4 4h12a4.012 4.012 0 0 0 4-4V6a4.012 4.012 0 0 0-4-4zm-.435 6.398a2.17 2.17 0 0 1-2.167 2.168h-.197a2.116 2.116 0 0 1-1.283-.435L10.18 12l3.738 1.87a2.116 2.116 0 0 1 1.283-.436h.197a2.17 2.17 0 0 1 2.167 2.168v.196a2.17 2.17 0 0 1-2.167 2.168h-.197a2.17 2.17 0 0 1-2.167-2.168v-.091l-3.752-1.876a2.12 2.12 0 0 1-1.284.435h-.196a2.17 2.17 0 0 1-2.168-2.168v-.197a2.17 2.17 0 0 1 2.168-2.167h.196a2.12 2.12 0 0 1 1.284.435l3.753-1.876v-.091A2.17 2.17 0 0 1 15.2 6.034h.197a2.17 2.17 0 0 1 2.167 2.168z"/></svg>