<svg id="icons" xmlns="http://www.w3.org/2000/svg" viewBox="0 0 16 16"><path d="M12.8 0H3.2A3.21 3.21 0 0 0 0 3.2v9.6A3.21 3.21 0 0 0 3.2 16h9.6a3.21 3.21 0 0 0 3.2-3.2V3.2A3.21 3.21 0 0 0 12.8 0zm.35 4.593a2.06 2.06 0 0 1-2.057 2.057h-.186a2.038 2.038 0 0 1-1.021-.276L6.634 8l3.252 1.626a2.038 2.038 0 0 1 1.021-.276h.186a2.06 2.06 0 0 1 2.057 2.057v.186a2.06 2.06 0 0 1-2.057 2.057h-.186a2.06 2.06 0 0 1-2.057-2.057v-.186a1.874 1.874 0 0 1 .038-.366L5.653 9.423a2.06 2.06 0 0 1-1.56.727h-.186A2.06 2.06 0 0 1 1.85 8.093v-.186A2.06 2.06 0 0 1 3.907 5.85h.186a2.06 2.06 0 0 1 1.56.727L8.888 4.96a1.883 1.883 0 0 1-.038-.367v-.186a2.06 2.06 0 0 1 2.057-2.057h.186a2.06 2.06 0 0 1 2.057 2.057z"/></svg>