<svg id="icons" xmlns="http://www.w3.org/2000/svg" viewBox="0 0 32 32"><path d="M25 1H7a6.018 6.018 0 0 0-6 6v18a6.018 6.018 0 0 0 6 6h18a6.018 6.018 0 0 0 6-6V7a6.018 6.018 0 0 0-6-6zm-.952 9.598a2.96 2.96 0 0 1-2.95 2.95h-.296a2.921 2.921 0 0 1-1.888-.705l-5.968 2.984.002.025v.296l-.002.025 5.968 2.984a2.921 2.921 0 0 1 1.888-.705h.296a2.96 2.96 0 0 1 2.95 2.95v.296a2.96 2.96 0 0 1-2.95 2.95h-.296a2.96 2.96 0 0 1-2.95-2.95v-.295l.002-.026-5.968-2.984a2.92 2.92 0 0 1-1.888.705h-.296a2.96 2.96 0 0 1-2.95-2.95v-.296a2.96 2.96 0 0 1 2.95-2.95h.296a2.92 2.92 0 0 1 1.888.705l5.968-2.984-.002-.025v-.296a2.96 2.96 0 0 1 2.95-2.95h.296a2.96 2.96 0 0 1 2.95 2.95z"/></svg>