<svg id="icons" xmlns="http://www.w3.org/2000/svg" viewBox="0 0 16 16"><path d="M14.361 4.937c.006.14.01.284.01.426a9.276 9.276 0 0 1-9.34 9.338A9.28 9.28 0 0 1 0 13.226a6.41 6.41 0 0 0 .783.047 6.585 6.585 0 0 0 4.076-1.406 3.282 3.282 0 0 1-3.066-2.28 3.228 3.228 0 0 0 .617.061 3.332 3.332 0 0 0 .865-.115A3.286 3.286 0 0 1 .643 6.314v-.043a3.272 3.272 0 0 0 1.486.412 3.285 3.285 0 0 1-1.016-4.382A9.32 9.32 0 0 0 7.88 5.73a3.285 3.285 0 0 1 5.594-2.994 6.617 6.617 0 0 0 2.084-.797 3.292 3.292 0 0 1-1.444 1.817A6.59 6.59 0 0 0 16 3.238a6.719 6.719 0 0 1-1.639 1.699z"/></svg>