<svg id="icons" xmlns="http://www.w3.org/2000/svg" viewBox="0 0 32 32"><path d="M26.734 10.494c.01.237.017.478.017.719A15.654 15.654 0 0 1 10.99 26.97a15.659 15.659 0 0 1-8.49-2.489 10.81 10.81 0 0 0 1.321.08 11.113 11.113 0 0 0 6.879-2.373 5.539 5.539 0 0 1-5.174-3.847 5.446 5.446 0 0 0 1.04.102 5.621 5.621 0 0 0 1.46-.194 5.544 5.544 0 0 1-4.442-5.432v-.072a5.52 5.52 0 0 0 2.508.695 5.543 5.543 0 0 1-1.714-7.395 15.73 15.73 0 0 0 11.417 5.787 5.543 5.543 0 0 1 9.44-5.053 11.163 11.163 0 0 0 3.517-1.344A5.555 5.555 0 0 1 26.316 8.5a11.127 11.127 0 0 0 3.184-.873 11.34 11.34 0 0 1-2.766 2.867z"/></svg>