<svg id="icons" xmlns="http://www.w3.org/2000/svg" viewBox="0 0 24 24"><path d="M20.746 7.53c.009.193.014.389.014.584a12.73 12.73 0 0 1-12.842 12.79A12.795 12.795 0 0 1 1 18.885a8.845 8.845 0 0 0 1.077.065 9.077 9.077 0 0 0 5.604-1.926A4.51 4.51 0 0 1 3.465 13.9a4.456 4.456 0 0 0 .849.082 4.598 4.598 0 0 0 1.19-.157 4.505 4.505 0 0 1-3.62-4.41v-.058a4.51 4.51 0 0 0 2.043.564A4.488 4.488 0 0 1 2.53 3.919a12.833 12.833 0 0 0 9.303 4.698 4.517 4.517 0 0 1 7.692-4.101 9.116 9.116 0 0 0 2.865-1.092 4.512 4.512 0 0 1-1.985 2.488A9.095 9.095 0 0 0 23 5.203a9.223 9.223 0 0 1-2.254 2.328z"/></svg>