<svg id="icons" xmlns="http://www.w3.org/2000/svg" viewBox="0 0 24 24"><path d="M21.906 5.194A3.091 3.091 0 0 0 19.7 4.23C16.623 4 12.005 4 12.005 4h-.01S7.377 4 4.3 4.23a3.092 3.092 0 0 0-2.205.964 5.022 5.022 0 0 0-.874 2.258A35.559 35.559 0 0 0 1 11.133v1.726a35.559 35.559 0 0 0 .22 3.682 5.022 5.022 0 0 0 .874 2.258 3.659 3.659 0 0 0 2.426.973C6.28 19.945 12 20 12 20s4.623-.007 7.701-.237a3.091 3.091 0 0 0 2.205-.964 5.024 5.024 0 0 0 .874-2.258A35.606 35.606 0 0 0 23 12.86v-1.726a35.606 35.606 0 0 0-.22-3.681 5.024 5.024 0 0 0-.874-2.258zM10 15.09V8.909l5.945 3.102z"/></svg>