<svg id="icons" xmlns="http://www.w3.org/2000/svg" viewBox="0 0 32 32"><path d="M28.607 8.418a4.085 4.085 0 0 0-2.805-1.145C21.884 7 16.006 7 16.006 7h-.012s-5.877 0-9.796.273a4.086 4.086 0 0 0-2.805 1.145 5.718 5.718 0 0 0-1.113 2.68A39.43 39.43 0 0 0 2 15.472v2.05a39.428 39.428 0 0 0 .28 4.372 5.719 5.719 0 0 0 1.113 2.681A4.853 4.853 0 0 0 6.48 25.73C8.72 25.936 16 26 16 26s5.884-.009 9.802-.282a4.085 4.085 0 0 0 2.805-1.144 5.721 5.721 0 0 0 1.113-2.681A39.488 39.488 0 0 0 30 17.52v-2.049a39.491 39.491 0 0 0-.28-4.372 5.72 5.72 0 0 0-1.113-2.681zM13 20.705v-8.41l8.566 4.22z"/></svg>