<?xml version="1.0" encoding="utf-8"?>
<!-- Generator: Adobe Illustrator 23.0.1, SVG Export Plug-In . SVG Version: 6.00 Build 0)  -->
<svg version="1.1" id="Layer_1" xmlns="http://www.w3.org/2000/svg" xmlns:xlink="http://www.w3.org/1999/xlink" x="0px" y="0px"
	 viewBox="0 0 36.9 35" style="enable-background:new 0 0 36.9 35;" xml:space="preserve">
<style type="text/css">
	.st0{fill:#005E95;}
</style>
<title>Indoors</title>
<g id="symbol">
	<path class="st0" d="M33.9,23.6V12.7l-2.5-1.1V6L19.2,0l-10,4.5C6.6,5.6,4.9,8.2,4.9,11v7.7l-1.5,0.8v4.3L0,25.5l6.7,3.4l4.9-2.3
		C10,25.8,9,24.2,9,22.4V11c0-1.5,0.9-2.8,2.2-3.5l8.3-3.8L27.9,8v5.6l2,1v7.3c-0.1,2.1-0.4,3.1-4,4.9l-6.5,3.3l-3.6-1.6L11,30.8
		l8.4,4.2l17.5-9.9L33.9,23.6z M23.3,17.5c0,2.2-1.7,3.9-3.9,3.9s-3.9-1.7-3.9-3.9s1.7-3.9,3.9-3.9l0,0
		C21.5,13.6,23.3,15.4,23.3,17.5z"/>
</g>
</svg>
